/* XPM */
static char * EMCON_Technologies_xpm[] = {
"370 40 48 1",
" 	c None",
".	c #007000",
"+	c #097509",
"@	c #0E780E",
"#	c #137B13",
"$	c #197E19",
"%	c #1D801D",
"&	c #238423",
"*	c #288628",
"=	c #2C892C",
"-	c #338C33",
";	c #388F38",
">	c #3B913B",
",	c #429542",
"'	c #469846",
")	c #4B9A4B",
"!	c #529E52",
"~	c #55A055",
"{	c #5BA35B",
"]	c #61A661",
"^	c #65A865",
"/	c #6AAC6A",
"(	c #70AF70",
"_	c #73B173",
":	c #7BB57B",
"<	c #7FB87F",
"[	c #80B780",
"}	c #83B983",
"|	c #8ABD8A",
"1	c #93C393",
"2	c #99C699",
"3	c #9DC89D",
"4	c #A2CBA2",
"5	c #A8CEA8",
"6	c #ACD0AC",
"7	c #B3D4B3",
"8	c #B8D7B8",
"9	c #BCD9BC",
"0	c #C2DDC2",
"a	c #C7E0C7",
"b	c #CBE2CB",
"c	c #D2E6D2",
"d	c #D6E8D6",
"e	c #DBEBDB",
"f	c #E1EEE1",
"g	c #EBF4EB",
"h	c #F4F9F4",
"i	c #FEFEFE",
"iiiiiiiiiiiiiiiiiiiiiiiiiiiiiiiiiiiiiiiiiiiiiiiiiiiiiiiiiiiiiiiiiiiiiiiiiiiiiiiiiiiiiiiiiiiiiiiiiiiiiiiiiiiiiiiiiiiiiiiiiiiiiiiiiiiiiiiiiiiiiiiiiiiiiiiiiiiiiiiiiiiiiiiiiiiiiiiiiiiiiiiiiiiiiiiiiiiiiiiiiiiiiiiiiiii'%>>;$:iiiiiiiiiiiiiiiiiiiiiiiiiiiiiiiiiiiiiiiiiiiiiiiiiiiiiiiiii|#;;;=&biiiiiiiiiiiiiiiiiiiiiiiiiiiiiiiiiiiiiiiiiiiiiia4giiiiiiiiiiiiiiiiiiiiiiiiiiiiiiiiiiii",
"iiiiiiiiiiiiiiiiiiiiiiiiiiiiiiiiiiiiiiiiiiiiiiiiiiiiiiiiiiiiiiiiiiiiiiiiiiiiiiiiiiiiiiiiiiiiiiiiiiiiiiiiiiiiiiiiiiiiiiiiiiiiiiiiiiiiiiiiiiiiiiiiiiiiiiiiiiiiiiiiiiiiiiiiiiiiiiiiiiiiiiiiiiiiiiiiiiiiiiiiiiiiiiiiiiif*.....7iiiiiiiiiiiiiiiiiiiiiiiiiiiiiiiiiiiiiiiiiiiiiiiiiiiiiiiiii{....+&hiiiiiiiiiiiiiiiiiiiiiiiiiiiiiiiiiiiiiiiiiiiih^..+{hiiiiiiiiiiiiiiiiiiiiiiiiiiiiiiiiii",
"iiiiigbeehiiiiiiifedbciiiiedhfbiiiiiiiiiiiiiiiiiiibfiddiiiiiiiiiiiig7}:{^^:}8giiiiiiiiiiiiiiih8}({)/}3biiiiiiiiiiiiiiii3_<(5iiiiiiiiiiiiiiiffhdgiiiiiiiiiig9deeefiiiiiiiiiifee0giiiiiiiiiiiiiiiiiiiiiiiiiiiiiiiiiiib+....&fiiiiiiiiiiiiiiiiiiiiiiiiiiiiiiiiiiiiiiiiiiiiiiiiiiiiiiiiih>.....{iiiiiiiiiiiiiiiiiiiiiiiiiiiiiiiiiiiiiiiiiiiii9.....|iiiiiiiiiiiiiiiiiiiiiiiiiiiiiiiiii",
"iiiii2+............++4iiii{+..+giiiiiiiiiiiiiiiii}@...|iiiiiiiiih4,+.........+;1giiiiiiiiii5)+..........{diiiiiiiiiiiii>...&fiiiiiiiiiiiiii(..+ciiiiiiiiii2+@+...............@$diiiiiiiiiiiiiiiiiiiiiiiiiiiiiiiiiii6.....)iiiiiiiiiiiiiiiiiiiiiiiiiiiiiiiiiiiiiiiiiiiiiiiiiiiiiiiiiif#.....2iiiiiiiiiiiiiiiiiiiiiiiiiiiiiiiiiiiiiiiiiiiii^.....,iiiiiiiiiiiiiiiiiiiiiiiiiiiiiiiiii",
"iiiii:..............@giiii$....7iiiiiiiiiiiiiiii0+....biiiiiiiia-.......+.......#[hiiiiii7=+.....@+.+....+{fiiiiiiiiiih&....(iiiiiiiiiiiiii,..=giiiiiiiiii/...................,hiiiiiiiiiiiiiiiiiiiiiiiiiiiiiiiiiii_.....|iiiiiiiiiiiiiiiiiiiiiiiiiiiiiiiiiiiiiiiiiiiiiiiiiiiiiiiiiib.....#ciiiiiiiiiiiiiiiiiiiiiiiiiiiiiiiiiiiiiiiiiiiii:...../iiiiiiiiiiiiiiiiiiiiiiiiiiiiiiiiii",
"iiiii)............+.;iiiid+..../iiiiiiiiiiiiiiig&....$giiiiiih^+.....=}6ba7($....&giiiih{......><6ed7(#....+5iiiiiiiiie#....#0iiiiiiiiiiiih*..{iiiiiiiiiih=...+++.......++....{iiiiiiiiiiiiiiiiiiiiiiiiiiiiiiiiiiii)....#biiiiiiiiiiiiiiiiiiiiiiiiiiiiiiiiiiiiiiiiiiiiiiiiiiiiiiiiii4.....&iiiiiiiiiiiiiiiiiiiiiiiiiiiiiiiiiiiiiiiiiiiiiid....+biiiiiiiiiiiiiiiiiiiiiiiiiiiiiiiiii",
"iiiii&.....>iiiihed96iiii3.....&hiiiiiiiiiiiiii).....)iiiiii0&.....%6iiiiiiih!@..5iiiie;.....#1iiiiiiie)....#9iiiiiiii7+.....)hiiiiiiiiiiic#..2iiiiiiiiiig469aeee=.....$9d08419iiiiiiiiiiiiiiiiiiiiiiiiiiiiiiiiiiig=....*hiiiiiiiiiiiiiiiiiiiiiiiiiiiiiiiiiiiiiiiiiiiiiiiiiiiiiiiiii/.....^iiiiiiiiiiiiiiiiiiiiiiiiiiiiiiiiiiiiiiiiiiiiiii6$.=5iiiiiiiiiiiiiiiiiiiiiiiiiiiiiiiiiii",
"iiiih......_iiiiiiiiiiiii^......eiiiiiiiiiiiii|+....._iiiiie$.....&0iiiiiiiiih{+-hiiig-.....*biiiiiiiiih,....&fiiiiiii1.......4iiiiiiiiiii7+.+ciiiiiiiiiiiiiiiiif$.....,hiiiiiiiiiiiiiiiiiiiiiiiiiiiiiiiiiiiiiiiiib+....{iiiiiiiiiiiiiiiiiiiiiiiiiiiiiiiiiiiiiiiiiiiiiiiiiiiiiiiiiih'.....4iiiiiiiiiiiiiiiiiiiiiiiiiiiiiiiiiiiiiiiiiiiiiiiiihiiiiiiiiiiiiiiiiiiiiiiiiiiiiiiiiiiiii",
"iiii0......8iiiiiiiiiiiii*......1iiiiiiiiiiii9+......8iiiii>.....#9iiiiiiiiiiih^4iiii/.....#0iiiiiiiiiii0#....)hiiiiii^.......&fiiiiiiiiii|..=giiiiiiiiiiiiiiiii0+.....}iiiiiiiiiiiiiiiiiiiiiiiiiiiiiiiiiiiiiiiiii6.....1iiiiiiiiiiiiiiiiiiiiiiiiiiiiiiiiiiiiiiiiiiiiiiiiiiiiiiiiiig$....#diiiiiiiiiiiiiiiiiiiiiiiiiiiiiiiiiiiiiiiiiiiiiiiiiiiiiiiiiiiiiiiiiiiiiiiiiiiiiiiiiiiiiii",
"iiii|.....+hiiiiiiiiiiiif.......)iiiiiiiiiiig*.......fiiii[.....+6iiiiiiiiiiiiiiiiii5+.....2iiiiiiiiiiiii!.....7iiiiii=........^iiiiiiiiii{..{iiiiiiiiiiiiiiiiii4+.....0iiiiiiiiiiiiiiiiiiiiiiiiiiiiiiiiiiiiiiiiii(....+9iiiiiiiiiiiiiiiiiiiiiiiiiiiiiiiiiiiiiiiiiiiiiiiiiiiiiiiiiic.....&iiiiiiiiiiiiiiiiiiiiiiiiiiiiiiiiiiiiiiiiiiiiiiiiiiiiiiiiiiiiiiiiiiiiiiiiiiiiiiiiiiiiiiii",
"iiii(.....,iiiiiiiiiiiii5.......+giiiiiiiiii).......&hiiic@.....{iiiiiiiiiiiiiiiiiig&.....)hiiiiiiiiiiiii|.....{iiiiif$........+7iiiiiiiii*..1iiiiiiiiiiiiiiiiii(.....$fiiiiiiiig2:^/}5fiiiiiiiiiiiig5}({:|7giiiii'....&fiib|/_2fiiiiiigafigdbiie2_^:5hiiiiiiiiiiih6|^/|9hiiiiiiiii4.....{iiiiiiiiid2:{[2eiiiiiiiiiiiig5({{/(4fiiiifdiii0ehifdeiiiiiiig5:^{}4diiiiiiiiiig7|^(18hii",
"iiii-.....(iiiiiiiiiiiii(........6iiiiiiiii|........{iiii,.....+9iiiiiiiiiiiiiiiiii(......7iiiiiiiiiiiiii6+....&fiiii9+.@)......=giiiiiiid%.+biiiiiiiiiiiiiiiiii>.....)iiiiiiif!+......@}hiiiiiiii0,+.......+'6iif=....>h1#.....#2iiiii2+...+|f!+.....*biiiiiiii2*.......%4iiiiiiii^.....2iiiiiif~+.......!fiiiiiiiih[@........+@...;iih@....+|iiiiih/+.......^hiiiiiih(.......@^f",
"iiii+.....5iiiiiiiiiiiii=......../iiiiiiii9+........<iii0+.....;hiiiiiiiiiiiiiiiiif#.....;giiiiiiiiiiiiii0+....+eiiii1..-e-......:iiiiiii7+.&fiiiiiiiiiiiiiiiiif&.....}iiiiii7$...+;)#...'giiiiii[+.....%-#....=bb+....^{........#9iiii/....+1*........=giiiiid,....&^)+...)giiiiig>....@0iiiii1@...+)/&...@5iiiiiib$....*}|$......./iie.....+diiiid=....-!#...&fiiiid&..+$*+...+g",
"iiib......fiiiigec8iiiig+..).....%hiiiiiif&..$......7iii|......}iiiiiiiiiiiiiiiiii4......1iiiiiiiiiiiiiii7+.....diiii]..]i0#.....@0iiiiii|..'iiiiiiiiiiiiiiiiiia+.....9iiiii|+...#5ii5+...<iiiif,.....)eiig/...-g4.....++.##+.....{iiih'....+#.+++......6iiii4#...+}iii1...+{iiiiig$....$hiiig)....*diig=...+aiiiig&....$fii6....=99dii7.....&iiii7#...+|iie+...~iiii;..*diig)..~i",
"iii3.............+,iiii5..@b+.....biiiiii'..@2@.....fiii,.....+eiiiiiiiiiiiiiiiiii{.....+diiiiiiiiiiiiiii4......0iiii=..2ii_......>giiiii~..:iiiiiiiiiiiiiiiiii4.....&eiiii9+....|iiif=...$eiig>...../hiiiig,.+5i^......#5hi5+....;iiif&......&|fh!....+|iii9@..../iiiig=...+7iiiib.....)iiii{....#ciiii4....;iiii^.....1iiig+...+8iiii[...../iiif@....{iiii'....9ii|...6iiiii=.5i",
"iii(..............1iiii(..!i*.....(iiiii<...45.....&hiii#.....&giiiiiiiiiiiiiiiiii%.....*giiiiiiiiiiiiiii|......eiiie$.+biih>......}iiiih*..9iiiiiiiiiiiiiiiiii^.....,hiiih;....&fiiii>....5ii1.....;giiiiii1.;gh;.....#0iiif*....=iiid+.....;giii0.....|iig-....&fiiiii{....>iiii|.....<iii4.....[iiiiie....+5iig$....#giiig.....}iiii~.....2iii{....+biiii(....:ii,...4iiiii2.di",
"iii;..........+...7iiii=..1i(.....=hiii7+.+(i}.....!iiig#.....>hiiiiiiiiiiiiiiiiig$.....{iiiiiiiiiiiiiiii).....#eiii7+.&fiii0#.....#aiiic#.$eiiiiiiiiiiiiiiiiii=.....(iiii4.....^iiiii>....:if%....+6iiiiiii7.|id$.....}iiiie$....)iii5.....#biiii7.....2ii:.....[iiiiii(....$fiii!....+5iif$....#fiiiiif@....:iie.....'iiiid....+{iiih&....+diia.....;iiiii/....)ii+...#7iiiiiiii",
"iii+.....0eeefc962fiiig+..ci8+....+diif$..>hi{....._iiid#.....!hiiiiiiiiiiiiiiiiif$....._iiiiiiiiiiiiiiig$.....&giii|..'iiiii}......>gii5..>hiiiiiiiiiiiiiiiiid%.....7iiih-.....7iiiig=....{i(....+=giiiiiiiiehi9.....&giiii0+...._iii(.....{iiiii:....+0id@....#biiiiii(....+9iig;....#dii(.....{iiiiiig#....,ii7+...._iiii1....._iiig.....%iii^.....}iiiii)....&ih......~diiiiii",
"iib......giiiiiiiiiiii5..&hih#.....[ih;..#eii&.....5iiif#...../iiiiiiiiiiiiiiiiiib#.....2iiiiiiiiiiiiiii8+.....{iiii)..(iiiiih,......[ii_..{iiiiiiiiiiiiiiiiii7.....@diiid$....+^<<<<{@....{i;.....<iiiiiiiiiiii|...../iiiii2.....5iih'....@0iiiii)....&fi6.....=iiiiiii{.....5iif+....&iih;....+6iiiiiif.....&iie.....1iiii!.....6iii9.....{iih&.....{<<<</#....>ii$......+/iiiii",
"ii1.....&iiiiiiiiiiiii/..{iii).....;h/..+5iig@.....fiiii#.....}iiiiiiiiiiiiiiiiiif#.....6iiiiiiiiiiiiiii^......4iiig&..5iiiiiia#.....@9i;..2iiiiiiiiiiiiiiiiii[.....=giii0+................[e$.....9iiiiiiiiiiii)....+7iiiii)+...#biif$....=hiiiig&....>ii/.....:iiiiiih'.....5ii7.....)iif+....#eiiiiii9.....&iig=..../iiib+....=hiii<.....2iih+................)ii{........-eiii",
"ii{.....{iiiiiiiiiiiii*..4iii2......<...(iii0+....$giiii=...../iiiiiiiiiiiiiiiiiii$....+7iiiiiiiiiiiiiie#.....$fiiia#.+diiiiiii|......*0$..aiiiiiiiiiiiiiiiiii,.....)iiii5.....#,!{{>>>>;$$70+....&diiiiiiiiiiig*....&fiiiig*....=hii0+..../iiiii0.....:ih!.....6iiiiiif&....@0ii(.....|iic.....&iiiiiii1.....)iii5+...=hig;....+9iiih)....+aiid.....+>!{{>>;;;&$[iig#........#eii",
"ii&.....|iiiiiiiiiiiie+..fiiid+........;hiii2.....'hiiii{.....)hiiiiiiiiiiiiiiiiii>.....|iiiiiiiiiiiiii_......1iiii4+.&giiiiiiih>......&..%fiiiiiiiiiiiiiiiiif&.....1iiii1....+{iiiiiiiiiiii8.....=giiiiiiiiiiib+....'iiiii0+....{iii2.....5iiiii}....+7ig=....@0iiiiiic+....$hih'....+7ii1.....)iiiiiii{.....2iiii0$...&)#....#7iiiih$....@hii9.....>iiiiiiiiiiiiiiid&........!ii",
"ig......9iiiiiiiiiiii4..*iiiii&.......@ciiii^.....^iiiii4+....;giiiiiiiiiiiiiiiiii1.....^iiiiiiiiiiiiid$.....>hiiii/..)hiiiiiiii0@........,hiiiiiiiiiiiiiiiii0+....+9iiii7.....:iiiiiiiiiiii0+....=giiiiiiiiiii2.....|iiiii|.....2iii{....$diiiii)....$eig*....$fiiiiii1.....'iif#....#dii1.....:iiiiiig*....+9iiiif(........&[giiiiic.....;iiif.....'iiiiiiiiiiiiiiiih:+......+ii",
"i5......fiiiiiiiiiiii{../iiiii(.......1iiiii=.....2iiiiii&....+0iiiiiiiiiiiiiiiiiif#....>hiiiiiiiiiiih>.....@aiiiii=..(iiiiiiiiii/........{iiiiiiiiiiiiiiiiii[.....$diiiia@....!iiiiiiiiiiiid$....*fiiiiiiiiiii{.....9iiiii'....@aiig=....=hiiiif%....;iih'...+$fiiiiii).....1ii9.....&iii0.....[iiiiiib.....%giii4#..!22225fiiiiiiii1.....(iiig@....=iiiiiiiiiiiiiiiiiid)......fi",
"i(.....+iiiiiiiiiiiii$..4iiiii6......'iiiiih@.....0iiiiii5+....'hiiiiiiiiiiiiiiiiii1+...+4iiiiiiiiiii/......|iiiiid$..4iiiiiiiiiif&.......1iiiiiiiiiiiiiiiiii,.....>hiiiif&....>hiiiiiiiiiiii>....+9iiiiiiiiiig;....&eiiiif&....&giid+....{iiiii9.....(iii^....%giiiiid+....-hii<.....!iiif+....<iiiiii^....+3iii0+..$hiiiiiiiiiiiiii{.....2iiii;....+hiiiiiiiiiiiifhiiiii5+....gi",
"i=.....=iiiiiiiiiiiib+..fiiiiig+....$fiiiii9+....+giiiiiii).....}iiiiiiiiiig:diiiiii)....*eiiiiiiiih/+.....{hiiiii6+..ciiiiiiiiiii6+......9iiiiiiiiiiiiiiiiie&.....)iiiiii}....+8iiiiiih[5iii:.....!iiiiiiigiid#....=hiiii9.....>iii4.....3iiiii_.....5iii5....%diiiii/....@biii'.....}iiih>...._iiiiie@....!iiih{...@0iiiiiiiiiiiiih&....+biiii7....+1iiiiiii1|iii&,iiiiii{...$ii",
"h......'eeeeb9927iii}..&iiiiiii;....2iiiiii|.....*hiiiiiiie*.....{fiiiiiih|$+aiiiiiig-....$7iiiiiic-......(hiiiiii(..$fiiiiiiiiiiii).....#diiiiiiiiiiiiiiiii8......|iiiiiif&....*aiiii9;.|iiig=....+(hiiih}#5i6.....~iiiii(+....(iii{....+9iiiig;....@0iiih'....6iiii9#...+1iiif#....+5iiii9+...=iiiih{....*giiih;.....+%=>{(2giiiiid.....@giiiih'....#7iiiid,.{iig..9iiiii)...(ii",
"5......+++++....3iii>..{iiiiiii_...'iiiiiii).....!hiiiiiiiif-.....+)/1|/)#..~iiiiiiiie>....+,/43/;+.....#3iiiiiiii;..>hiiiiiiiiiiiid#....;giiiiiiiiiiiiiiiii_......7iiiiiii7@....+>{{&..@ciiiib#.....&{}(*.*gi/.....}iiiig>.....3iig=....%eiiiic+....&giiiic#...>gii9%...+}iiii7.....#biiiii/...+2iih/....=ciiiii]............#2iiii1.....&iiiiiic$.....-{{-+..7ii4..#3iii|...;iii",
"^...............giif+..|iiiiiii7..@eiiiiiii#.....:iiiiiiiiiih2$.............9iiiiiiiiii6&.............#<giiiiiiiid$..{iiiiiiiiiiiiii|+...)iiiiiiiiiiiiiiiiii;.....+ciiiiiiiic-..........)iiiiii8*..........}ih>.....5iiiic@....+9iib+....=hiiii|.....;iiiiii7&...&{>....;biiiii^.....$hiiiiig/...+))$...@:iiiiiiid#............+7iii~.....!iiiiiiif)..........$hii)....+%+...;hiii",
"&$$$$$$$$$$$$$$#iii3$$#0iiiiiiif@.|iiiiiiib$$$$$#2iiiiiiiiiiiig4{#.......+,1hiiiiiiiiiiii5)%.......#{4giiiiiiiiii4#$$[iiiiiiiiiiiiiih>...:iiiiiiiiiiiiiiiiid=$$$$$;fiiiiiiiiih|;+.++.+)7iiiiiiiih1%......+,did&$$$$&0iiii1#$$$$=eii2$$$$$)iiiih'#$$$#/iiiiiiig_@.....@>4iiiiiig,$$$$$)iiiiiiii9;......&{eiiiiiiih7'.............)iih&$$$$$<iiiiiiiii5,+.++..,5iiii7{+.....+-3iiiii",
"iiiiiiiiiiiiiiiiiiiiiiiiiiiiiiii22hiiiiiiiiiiiiiiiiiiiiiiiiiiiiiiied9899cgiiiiiiiiiiiiiiiiiiie736afiiiiiiiiiiiiiiiiiiiiiiiiiiiiiiiiiid7a7diiiiiiiiiiiiiiiiiiiiiiiiiiiiiiiiiiiiiigeeegiiiiiiiiiiiiiig92240hiiiiiiiiiiiiiiiiiiiiiiiiiiiiiiiiiiiiiiiiiiiiiiiiiiiiiie615eiiiiiiiiiiiiiiiiiiiiiiiiiiig9320hiiiiiiiiif'..+!<<</'+.....#iiiiiiiiiiiiiiiiiiiiiiedegiiiiiiiiig05129fiiiiiii",
"iiiiiiiiiiiiiiiiiiiiiiiiiiiiiiiiiiiiiiiiiiiiiiiiiiiiiiiiiiiiiiiiiiiiiiiiiiiiiiiiiiiiiiiiiiiiiiiiiiiiiiiiiiiiiiiiiiiiiiiiiiiiiiiiiiiiiiiiiiiiiiiiiiiiiiiiiiiiiiiiiiiiiiiiiiiiiiiiiiiiiiiiiiiiiiiiiiiiiiiiiiiiiiiiiiiiiiiiiiiiiiiiiiiiiiiiiiiiiiiiiiiiiiiiiiiiiiiiiiiiiiiiiiiiiiiiiiiiiiiiiiiiiiiiiiiiiiiiiiiiiih;..+7iiiiiig|....@eiiiiiiiiiiiiiiiiiiiiiiiiiiiiiiiiiiiiiiiiiiiiiiii",
"iiiiiiiiiiiiiiiiiiiiiiiiiiiiiiiiiiiiiiiiiiiiiiiiiiiiiiiiiiiiiiiiiiiiiiiiiiiiiiiiiiiiiiiiiiiiiiiiiiiiiiiiiiiiiiiiiiiiiiiiiiiiiiiiiiiiiiiiiiiiiiiiiiiiiiiiiiiiiiiiiiiiiiiiiiiiiiiiiiiiiiiiiiiiiiiiiiiiiiiiiiiiiiiiiiiiiiiiiiiiiiiiiiiiiiiiiiiiiiiiiiiiiiiiiiiiiiiiiiiiiiiiiiiiiiiiiiiiiiiiiiiiiiiiiiiiiiiiiiiiii[...:iiiiiiiih'...$iiiiiiiiiiiiiiiiiiiiiiiiiiiiiiiiiiiiiiiiiiiiiiiii",
"iiiiiiiiiiiiiiiiiiiiiiiiiiiiiiiiiiiiiiiiiiiiiiiiiiiiiiiiiiiiiiiiiiiiiiiiiiiiiiiiiiiiiiiiiiiiiiiiiiiiiiiiiiiiiiiiiiiiiiiiiiiiiiiiiiiiiiiiiiiiiiiiiiiiiiiiiiiiiiiiiiiiiiiiiiiiiiiiiiiiiiiiiiiiiiiiiiiiiiiiiiiiiiiiiiiiiiiiiiiiiiiiiiiiiiiiiiiiiiiiiiiiiiiiiiiiiiiiiiiiiiiiiiiiiiiiiiiiiiiiiiiiiiiiiiiiiiiiiiiiih>..@9iiiiiiiii/...)iiiiiiiiiiiiiiiiiiiiiiiiiiiiiiiiiiiiiiiiiiiiiiiii",
"iiiiiiiiiiiiiiiiiiiiiiiiiiiiiiiiiiiiiiiiiiiiiiiiiiiiiiiiiiiiiiiiiiiiiiiiiiiiiiiiiiiiiiiiiiiiiiiiiiiiiiiiiiiiiiiiiiiiiiiiiiiiiiiiiiiiiiiiiiiiiiiiiiiiiiiiiiiiiiiiiiiiiiiiiiiiiiiiiiiiiiiiiiiiiiiiiiiiiiiiiiiiiiiiiiiiiiiiiiiiiiiiiiiiiiiiiiiiiiiiiiiiiiiiiiiiiiiiiiiiiiiiiiiiiiiiiiiiiiiiiiiiiiiiiiiiiiiiiiiiig&..+9iiiiiiiih'...3iiiiiiiiiiiiiiiiiiiiiiiiiiiiiiiiiiiiiiiiiiiiiiiii",
"iiiiiiiiiiiiiiiiiiiiiiiiiiiiiiiiiiiiiiiiiiiiiiiiiiiiiiiiiiiiiiiiiiiiiiiiiiiiiiiiiiiiiiiiiiiiiiiiiiiiiiiiiiiiiiiiiiiiiiiiiiiiiiiiiiiiiiiiiiiiiiiiiiiiiiiiiiiiiiiiiiiiiiiiiiiiiiiiiiiiiiiiiiiiiiiiiiiiiiiiiiiiiiiiiiiiiiiiiiiiiiiiiiiiiiiiiiiiiiiiiiiiiiiiiiiiiiiiiiiiiiiiiiiiiiiiiiiiiiiiiiiiiiiiiiiiiiiiiiiiih>...[iiiiiiii9+..)iiiiiiiiiiiiiiiiiiiiiiiiiiiiiiiiiiiiiiiiiiiiiiiiii",
"iiiiiiiiiiiiiiiiiiiiiiiiiiiiiiiiiiiiiiiiiiiiiiiiiiiiiiiiiiiiiiiiiiiiiiiiiiiiiiiiiiiiiiiiiiiiiiiiiiiiiiiiiiiiiiiiiiiiiiiiiiiiiiiiiiiiiiiiiiiiiiiiiiiiiiiiiiiiiiiiiiiiiiiiiiiiiiiiiiiiiiiiiiiiiiiiiiiiiiiiiiiiiiiiiiiiiiiiiiiiiiiiiiiiiiiiiiiiiiiiiiiiiiiiiiiiiiiiiiiiiiiiiiiiiiiiiiiiiiiiiiiiiiiiiiiiiiiiiiiiii[...@9iiiiiid&..#eiiiiiiiiiiiiiiiiiiiiiiiiiiiiiiiiiiiiiiiiiiiiiiiiii",
"iiiiiiiiiiiiiiiiiiiiiiiiiiiiiiiiiiiiiiiiiiiiiiiiiiiiiiiiiiiiiiiiiiiiiiiiiiiiiiiiiiiiiiiiiiiiiiiiiiiiiiiiiiiiiiiiiiiiiiiiiiiiiiiiiiiiiiiiiiiiiiiiiiiiiiiiiiiiiiiiiiiiiiiiiiiiiiiiiiiiiiiiiiiiiiiiiiiiiiiiiiiiiiiiiiiiiiiiiiiiiiiiiiiiiiiiiiiiiiiiiiiiiiiiiiiiiiiiiiiiiiiiiiiiiiiiiiiiiiiiiiiiiiiiiiiiiiiiiiiiiih>...+!497|{+..&aiiiiiiiiiiiiiiiiiiiiiiiiiiiiiiiiiiiiiiiiiiiiiiiiiii",
"iiiiiiiiiiiiiiiiiiiiiiiiiiiiiiiiiiiiiiiiiiiiiiiiiiiiiiiiiiiiiiiiiiiiiiiiiiiiiiiiiiiiiiiiiiiiiiiiiiiiiiiiiiiiiiiiiiiiiiiiiiiiiiiiiiiiiiiiiiiiiiiiiiiiiiiiiiiiiiiiiiiiiiiiiiiiiiiiiiiiiiiiiiiiiiiiiiiiiiiiiiiiiiiiiiiiiiiiiiiiiiiiiiiiiiiiiiiiiiiiiiiiiiiiiiiiiiiiiiiiiiiiiiiiiiiiiiiiiiiiiiiiiiiiiiiiiiiiiiiiiiih/+.........+:iiiiiiiiiiiiiiiiiiiiiiiiiiiiiiiiiiiiiiiiiiiiiiiiiiiii",
"iiiiiiiiiiiiiiiiiiiiiiiiiiiiiiiiiiiiiiiiiiiiiiiiiiiiiiiiiiiiiiiiiiiiiiiiiiiiiiiiiiiiiiiiiiiiiiiiiiiiiiiiiiiiiiiiiiiiiiiiiiiiiiiiiiiiiiiiiiiiiiiiiiiiiiiiiiiiiiiiiiiiiiiiiiiiiiiiiiiiiiiiiiiiiiiiiiiiiiiiiiiiiiiiiiiiiiiiiiiiiiiiiiiiiiiiiiiiiiiiiiiiiiiiiiiiiiiiiiiiiiiiiiiiiiiiiiiiiiiiiiiiiiiiiiiiiiiiiiiiiiiiif|)$+.+$'|eiiiiiiiiiiiiiiiiiiiiiiiiiiiiiiiiiiiiiiiiiiiiiiiiiiiiii"
};
